<svg xmlns="http://www.w3.org/2000/svg" viewBox="0 0 128 128">
  <rect width="128" height="128" rx="24" fill="#090d0f"/>
  <rect x="24" y="24" width="80" height="80" rx="18" fill="#eef6f8"/>
  <path d="M73.6 41.7c-3.8-2.1-8.5-3.3-13.9-3.3-11.1 0-18.4 5.4-18.4 14.1 0 9.7 9.1 12.1 18.2 14.1 7.4 1.6 10.9 2.5 10.9 6.3 0 3.5-3.4 5.5-9.5 5.5-5.8 0-11.3-1.9-15.3-5.1l-5.1 8.9c4.9 3.9 12 6.1 20.2 6.1 12.3 0 20-5.9 20-15.5 0-10-8.6-12.5-18.3-14.7-7.2-1.6-10.8-2.3-10.8-5.8 0-3.2 3.1-4.8 8.1-4.8 5 0 9.5 1.2 13.1 3.7l4.8-9.5Z" fill="#090d0f"/>
</svg>
